<svg width="15" height="15" viewBox="0 0 15 15" fill="none" xmlns="http://www.w3.org/2000/svg">
<path d="M8 13.6667H14.375" stroke="black" stroke-width="1.27" stroke-linecap="round" stroke-linejoin="round"/>
<path d="M10.738 1.48341C10.9116 1.30978 11.1177 1.17204 11.3446 1.07807C11.5715 0.984096 11.8146 0.93573 12.0602 0.93573C12.3057 0.93573 12.5489 0.984096 12.7758 1.07807C13.0026 1.17204 13.2088 1.30978 13.3824 1.48341C13.556 1.65705 13.6938 1.86319 13.7877 2.09005C13.8817 2.31692 13.9301 2.56008 13.9301 2.80563C13.9301 3.05119 13.8817 3.29435 13.7877 3.52122C13.6938 3.74808 13.556 3.95422 13.3824 4.12786L4.4574 13.0529L0.821289 14.0445L1.81296 10.4084L10.738 1.48341Z" stroke="black" stroke-width="1.27" stroke-linecap="round" stroke-linejoin="round"/>
</svg>
