<svg width="15" height="15" viewBox="0 0 15 15" fill="none" xmlns="http://www.w3.org/2000/svg">
<path d="M7.04146 13.5417C7.89521 13.5428 8.74076 13.3752 9.52951 13.0485C10.3183 12.7218 11.0347 12.2424 11.6376 11.6379C12.2421 11.035 12.7214 10.3186 13.0482 9.52982C13.3749 8.74106 13.5425 7.8955 13.5414 7.04175C13.5425 6.188 13.3749 5.34245 13.0481 4.55369C12.7214 3.76493 12.242 3.04851 11.6376 2.4456C11.0347 1.84111 10.3183 1.36173 9.52951 1.035C8.74076 0.708274 7.89521 0.540647 7.04146 0.541753C6.18772 0.540665 5.34217 0.7083 4.55342 1.03503C3.76466 1.36175 3.04825 1.84113 2.44534 2.4456C1.84087 3.04851 1.3615 3.76493 1.03478 4.55369C0.708055 5.34245 0.540421 6.188 0.541509 7.04175C0.540403 7.8955 0.708029 8.74106 1.03475 9.52982C1.36148 10.3186 1.84086 11.035 2.44534 11.6379C3.04825 12.2424 3.76466 12.7217 4.55342 13.0485C5.34217 13.3752 6.18772 13.5428 7.04146 13.5417Z" stroke="black" stroke-width="1.08333" stroke-linejoin="round"/>
<path d="M3.69775 7.0418L5.64774 8.99179L9.54771 5.0918" stroke="black" stroke-width="1.29999" stroke-linecap="round" stroke-linejoin="round"/>
</svg>
