<svg width="15" height="15" viewBox="0 0 15 15" fill="none" xmlns="http://www.w3.org/2000/svg">
<path d="M12.6673 5.3335H6.66732C5.93094 5.3335 5.33398 5.93045 5.33398 6.66683V12.6668C5.33398 13.4032 5.93094 14.0002 6.66732 14.0002H12.6673C13.4037 14.0002 14.0007 13.4032 14.0007 12.6668V6.66683C14.0007 5.93045 13.4037 5.3335 12.6673 5.3335Z" stroke="black" stroke-width="1.33333" stroke-linecap="round" stroke-linejoin="round"/>
<path d="M2.66699 9.33341H2.00033C1.6467 9.33341 1.30756 9.19294 1.05752 8.94289C0.807468 8.69284 0.666992 8.3537 0.666992 8.00008V2.00008C0.666992 1.64646 0.807468 1.30732 1.05752 1.05727C1.30756 0.807224 1.6467 0.666748 2.00033 0.666748H8.00033C8.35395 0.666748 8.69309 0.807224 8.94313 1.05727C9.19318 1.30732 9.33366 1.64646 9.33366 2.00008V2.66675" stroke="black" stroke-width="1.33333" stroke-linecap="round" stroke-linejoin="round"/>
</svg>
