<svg width="17" height="17" viewBox="0 0 17 17" fill="none" xmlns="http://www.w3.org/2000/svg">
<path d="M14.075 16.25H2.175C1.59815 16.25 1.04493 16.0208 0.637043 15.613C0.229151 15.2051 0 14.6518 0 14.075V2.175C0 1.59815 0.229151 1.04493 0.637043 0.637043C1.04493 0.229151 1.59815 0 2.175 0H14.075C14.6518 0 15.2051 0.229151 15.613 0.637043C16.0208 1.04493 16.25 1.59815 16.25 2.175V14.075C16.25 14.6518 16.0208 15.2051 15.613 15.613C15.2051 16.0208 14.6518 16.25 14.075 16.25ZM2.175 1.25C1.92967 1.25 1.6944 1.34746 1.52093 1.52093C1.34746 1.6944 1.25 1.92967 1.25 2.175V14.075C1.25 14.3203 1.34746 14.5556 1.52093 14.7291C1.6944 14.9025 1.92967 15 2.175 15H14.075C14.3203 15 14.5556 14.9025 14.7291 14.7291C14.9025 14.5556 15 14.3203 15 14.075V2.175C15 1.92967 14.9025 1.6944 14.7291 1.52093C14.5556 1.34746 14.3203 1.25 14.075 1.25H2.175Z" fill="black" stroke-opacity="0.8" />
<path d="M0.624921 13.8C0.534895 13.7998 0.445964 13.7803 0.364057 13.7429C0.282149 13.7056 0.209148 13.6512 0.149921 13.5834C0.0966131 13.5206 0.0562517 13.4478 0.0311585 13.3693C0.00606526 13.2909 -0.00326468 13.2082 0.00370557 13.1261C0.0106758 13.044 0.0338087 12.9641 0.0717733 12.891C0.109738 12.8179 0.161785 12.753 0.224921 12.7L4.49159 9.10004C4.81015 8.83118 5.2179 8.69144 5.63441 8.70841C6.05092 8.72538 6.44595 8.89782 6.74159 9.19171L8.76659 11.2167C8.84206 11.2813 8.93811 11.3167 9.03742 11.3167C9.13673 11.3167 9.23278 11.2813 9.30825 11.2167L11.2749 9.79171C11.5664 9.56736 11.9238 9.44571 12.2916 9.44571C12.6594 9.44571 13.0168 9.56736 13.3083 9.79171L16.0166 11.95C16.0812 12.0015 16.135 12.0651 16.1749 12.1374C16.2149 12.2096 16.2402 12.289 16.2495 12.371C16.2588 12.453 16.2519 12.5361 16.229 12.6154C16.2062 12.6947 16.168 12.7688 16.1166 12.8334C16.0652 12.8979 16.0015 12.9517 15.9293 12.9917C15.8571 13.0317 15.7777 13.057 15.6956 13.0663C15.6136 13.0756 15.5306 13.0686 15.4512 13.0458C15.3719 13.023 15.2978 12.9848 15.2333 12.9334L12.5333 10.7667C12.4604 10.7106 12.371 10.6802 12.2791 10.6802C12.1871 10.6802 12.0978 10.7106 12.0249 10.7667L10.0583 12.2917C9.73814 12.5321 9.3422 12.6492 8.94283 12.6217C8.54346 12.5941 8.16734 12.4238 7.88325 12.1417L5.85825 10.075C5.78169 10.0059 5.68222 9.96769 5.57909 9.96769C5.47595 9.96769 5.37648 10.0059 5.29992 10.075L1.02492 13.6584C0.913295 13.7527 0.771059 13.8031 0.624921 13.8Z" fill="black" stroke-opacity="0.8" />
<path d="M10.6249 7.91659C10.1717 7.91659 9.7286 7.78218 9.35174 7.53037C8.97488 7.27856 8.68115 6.92065 8.5077 6.5019C8.33425 6.08316 8.28886 5.62238 8.37729 5.17784C8.46571 4.7333 8.68397 4.32496 9.00447 4.00447C9.32496 3.68397 9.7333 3.46571 10.1778 3.37729C10.6224 3.28886 11.0832 3.33424 11.5019 3.5077C11.9207 3.68115 12.2786 3.97487 12.5304 4.35174C12.7822 4.7286 12.9166 5.17167 12.9166 5.62492C12.9166 6.23271 12.6751 6.8156 12.2454 7.24537C11.8156 7.67514 11.2327 7.91659 10.6249 7.91659ZM10.6249 4.58325C10.4189 4.58325 10.2175 4.64435 10.0462 4.75881C9.8749 4.87327 9.74139 5.03595 9.66255 5.22629C9.5837 5.41663 9.56308 5.62608 9.60327 5.82814C9.64346 6.0302 9.74267 6.21581 9.88835 6.36149C10.034 6.50717 10.2196 6.60638 10.4217 6.64657C10.6238 6.68676 10.8332 6.66614 11.0235 6.58729C11.2139 6.50845 11.3766 6.37494 11.491 6.20364C11.6055 6.03234 11.6666 5.83094 11.6666 5.62492C11.6666 5.34865 11.5568 5.0837 11.3615 4.88835C11.1661 4.693 10.9012 4.58325 10.6249 4.58325Z" fill="black" stroke-opacity="0.8" />
</svg>
