<svg width="34" height="20" viewBox="0 0 34 20" fill="none" xmlns="http://www.w3.org/2000/svg">
<g clip-path="url(#clip0_749_30867)">
<rect width="33.8462" height="20" rx="10" fill="#E9E9EA"/>
<g filter="url(#filter0_d_749_30867)">
<rect x="1.53809" y="1.53857" width="16.9231" height="16.9231" rx="8.46154" fill="white"/>
</g>
<g clip-path="url(#clip1_749_30867)">
<path d="M12.7573 8.76868V7.47073C12.7573 5.9509 11.5217 4.71338 9.99998 4.71338C8.48015 4.71338 7.24263 5.9509 7.24263 7.47073V8.76868C6.60646 8.82184 6.10596 9.35901 6.10596 10.008V11.5554C6.10596 13.5445 7.72294 15.1634 9.7121 15.1634H10.2878C12.2769 15.1634 13.8939 13.5445 13.8939 11.5554V10.008C13.8939 9.35896 13.3935 8.82183 12.7573 8.76868ZM8.43615 7.47073C8.52186 5.39861 11.4782 5.39908 11.5638 7.47073V8.76328H8.43615L8.43615 7.47073ZM9.56366 12.1073C8.92016 11.6875 9.23412 10.6613 10 10.6681C10.7659 10.6617 11.0803 11.687 10.4363 12.1073C10.3868 12.1403 10.3557 12.199 10.3557 12.2595V12.903C10.3438 13.3714 9.65672 13.3723 9.64434 12.903V12.2595C9.64434 12.199 9.61316 12.1403 9.56366 12.1073Z" fill="black" fill-opacity="0.6"/>
</g>
</g>
<defs>
<filter id="filter0_d_749_30867" x="-3.0773" y="-3.07681" width="26.1539" height="26.1539" filterUnits="userSpaceOnUse" color-interpolation-filters="sRGB">
<feFlood flood-opacity="0" result="BackgroundImageFix"/>
<feColorMatrix in="SourceAlpha" type="matrix" values="0 0 0 0 0 0 0 0 0 0 0 0 0 0 0 0 0 0 127 0" result="hardAlpha"/>
<feOffset/>
<feGaussianBlur stdDeviation="2.30769"/>
<feComposite in2="hardAlpha" operator="out"/>
<feColorMatrix type="matrix" values="0 0 0 0 0 0 0 0 0 0 0 0 0 0 0 0 0 0 0.08 0"/>
<feBlend mode="normal" in2="BackgroundImageFix" result="effect1_dropShadow_749_30867"/>
<feBlend mode="normal" in="SourceGraphic" in2="effect1_dropShadow_749_30867" result="shape"/>
</filter>
<clipPath id="clip0_749_30867">
<rect width="33.8462" height="20" rx="10" fill="white"/>
</clipPath>
<clipPath id="clip1_749_30867">
<rect width="11" height="11" fill="white" transform="translate(4.5 4.43848)"/>
</clipPath>
</defs>
</svg>
