<svg width="16" height="16" viewBox="0 0 16 16" fill="none" xmlns="http://www.w3.org/2000/svg">
<path d="M6.0498 2.67505H9.0498C9.0498 2.27722 8.89177 1.89569 8.61046 1.61439C8.32916 1.33308 7.94763 1.17505 7.5498 1.17505C7.15198 1.17505 6.77045 1.33308 6.48914 1.61439C6.20784 1.89569 6.0498 2.27722 6.0498 2.67505ZM4.9248 2.67505C4.9248 2.33033 4.9927 1.98898 5.12462 1.67051C5.25654 1.35203 5.4499 1.06265 5.69365 0.818894C5.9374 0.57514 6.22678 0.381784 6.54526 0.249865C6.86374 0.117946 7.20508 0.0500488 7.5498 0.0500488C7.89452 0.0500488 8.23587 0.117946 8.55435 0.249865C8.87283 0.381784 9.16221 0.57514 9.40596 0.818894C9.64971 1.06265 9.84307 1.35203 9.97499 1.67051C10.1069 1.98898 10.1748 2.33033 10.1748 2.67505H14.4873C14.6365 2.67505 14.7796 2.73431 14.8851 2.8398C14.9905 2.94529 15.0498 3.08836 15.0498 3.23755C15.0498 3.38673 14.9905 3.52981 14.8851 3.6353C14.7796 3.74079 14.6365 3.80005 14.4873 3.80005H13.4973L12.6198 12.8833C12.5525 13.5793 12.2283 14.2252 11.7106 14.6952C11.1928 15.1651 10.5185 15.4253 9.8193 15.425H5.2803C4.5812 15.4251 3.90713 15.1648 3.38952 14.6949C2.8719 14.225 2.54785 13.5792 2.48055 12.8833L1.6023 3.80005H0.612305C0.46312 3.80005 0.320046 3.74079 0.214557 3.6353C0.109068 3.52981 0.0498047 3.38673 0.0498047 3.23755C0.0498047 3.08836 0.109068 2.94529 0.214557 2.8398C0.320046 2.73431 0.46312 2.67505 0.612305 2.67505H4.9248ZM6.4248 6.23755C6.4248 6.08837 6.36554 5.94529 6.26005 5.8398C6.15456 5.73431 6.01149 5.67505 5.8623 5.67505C5.71312 5.67505 5.57005 5.73431 5.46456 5.8398C5.35907 5.94529 5.2998 6.08837 5.2998 6.23755V11.8625C5.2998 12.0117 5.35907 12.1548 5.46456 12.2603C5.57005 12.3658 5.71312 12.425 5.8623 12.425C6.01149 12.425 6.15456 12.3658 6.26005 12.2603C6.36554 12.1548 6.4248 12.0117 6.4248 11.8625V6.23755ZM9.2373 5.67505C9.38649 5.67505 9.52956 5.73431 9.63505 5.8398C9.74054 5.94529 9.7998 6.08837 9.7998 6.23755V11.8625C9.7998 12.0117 9.74054 12.1548 9.63505 12.2603C9.52956 12.3658 9.38649 12.425 9.2373 12.425C9.08812 12.425 8.94505 12.3658 8.83956 12.2603C8.73407 12.1548 8.6748 12.0117 8.6748 11.8625V6.23755C8.6748 6.08837 8.73407 5.94529 8.83956 5.8398C8.94505 5.73431 9.08812 5.67505 9.2373 5.67505ZM3.6003 12.7753C3.64076 13.1928 3.83524 13.5802 4.14583 13.8621C4.45642 14.144 4.86086 14.3001 5.2803 14.3H9.8193C10.2387 14.3001 10.6432 14.144 10.9538 13.8621C11.2644 13.5802 11.4589 13.1928 11.4993 12.7753L12.3678 3.80005H2.7318L3.6003 12.7753Z" fill="black" stroke="black" stroke-width="0.1"/>
</svg>
