<svg id="Layer_1" viewBox="0 0 24 24" xmlns="http://www.w3.org/2000/svg" data-name="Layer 1"><path d="m22.842 14.539c-1.592 2.488-3.71 4.607-6.295 6.298-.456.3-1.08.176-1.384-.289-.302-.463-.173-1.082.29-1.385 1.787-1.169 3.311-2.572 4.579-4.163h-8.032c-7.71 0-11-3.29-11-11 0-.356.007-.704.021-1.041.022-.552.493-1.007 1.04-.958.552.022.981.488.958 1.04-.013.31-.019.63-.019.959 0 6.561 2.439 9 9 9h8.032c-1.268-1.591-2.792-2.994-4.579-4.163-.462-.303-.592-.922-.29-1.385.303-.461.922-.591 1.384-.289 2.585 1.69 4.703 3.81 6.295 6.298.21.329.21.749 0 1.078z"/></svg>