<svg width="20" height="20" viewBox="0 0 20 20" fill="none" xmlns="http://www.w3.org/2000/svg">
<path d="M19.2525 11.6051L18.0219 1.80819C17.9596 1.30637 17.715 0.844942 17.3348 0.511592C16.9545 0.178243 16.4651 -0.00379875 15.9594 6.01145e-05H3.28191C2.77625 -0.00379875 2.28679 0.178243 1.90654 0.511592C1.5263 0.844942 1.28176 1.30637 1.21941 1.80819L0.00253505 11.6051C-0.000845016 11.6325 -0.000845016 11.6602 0.00253505 11.6876V17.1876C0.00253505 17.7346 0.219834 18.2592 0.606627 18.646C0.993421 19.0328 1.51803 19.2501 2.06504 19.2501H17.19C17.737 19.2501 18.2616 19.0328 18.6484 18.646C19.0352 18.2592 19.2525 17.7346 19.2525 17.1876V11.6876C19.2559 11.6602 19.2559 11.6325 19.2525 11.6051ZM2.59441 1.98006C2.61467 1.81237 2.69596 1.65801 2.82276 1.54643C2.94956 1.43484 3.11301 1.37384 3.28191 1.37506H15.9732C16.1421 1.37384 16.3055 1.43484 16.4323 1.54643C16.5591 1.65801 16.6404 1.81237 16.6607 1.98006L17.7882 11.0001H1.46691L2.59441 1.98006ZM17.8775 17.1876C17.8775 17.3699 17.8051 17.5448 17.6762 17.6737C17.5472 17.8026 17.3724 17.8751 17.19 17.8751H2.06504C1.8827 17.8751 1.70783 17.8026 1.5789 17.6737C1.44997 17.5448 1.37754 17.3699 1.37754 17.1876V12.3751H17.8775V17.1876ZM2.75254 15.1251C2.75254 14.8531 2.83318 14.5873 2.98426 14.3611C3.13535 14.135 3.3501 13.9588 3.60135 13.8547C3.85259 13.7507 4.12906 13.7234 4.39578 13.7765C4.66251 13.8295 4.90751 13.9605 5.09981 14.1528C5.2921 14.3451 5.42306 14.5901 5.47611 14.8568C5.52917 15.1235 5.50194 15.4 5.39787 15.6512C5.2938 15.9025 5.11756 16.1172 4.89144 16.2683C4.66533 16.4194 4.39948 16.5001 4.12753 16.5001C3.76286 16.5001 3.41313 16.3552 3.15526 16.0973C2.8974 15.8395 2.75254 15.4897 2.75254 15.1251ZM6.19003 15.1251C6.19003 14.8531 6.27068 14.5873 6.42176 14.3611C6.57285 14.135 6.7876 13.9588 7.03885 13.8547C7.29009 13.7507 7.56656 13.7234 7.83328 13.7765C8.10001 13.8295 8.34501 13.9605 8.53731 14.1528C8.7296 14.3451 8.86056 14.5901 8.91361 14.8568C8.96667 15.1235 8.93944 15.4 8.83537 15.6512C8.7313 15.9025 8.55506 16.1172 8.32894 16.2683C8.10283 16.4194 7.83698 16.5001 7.56503 16.5001C7.20036 16.5001 6.85063 16.3552 6.59276 16.0973C6.3349 15.8395 6.19003 15.4897 6.19003 15.1251ZM9.62753 15.1251C9.62753 14.9427 9.69997 14.7679 9.8289 14.6389C9.95783 14.51 10.1327 14.4376 10.315 14.4376H15.815C15.9974 14.4376 16.1722 14.51 16.3012 14.6389C16.4301 14.7679 16.5025 14.9427 16.5025 15.1251C16.5025 15.3074 16.4301 15.4823 16.3012 15.6112C16.1722 15.7401 15.9974 15.8126 15.815 15.8126H10.315C10.1327 15.8126 9.95783 15.7401 9.8289 15.6112C9.69997 15.4823 9.62753 15.3074 9.62753 15.1251Z" fill="black"/>
</svg>
