<svg width="16" height="17" viewBox="0 0 16 17" fill="none" xmlns="http://www.w3.org/2000/svg">
<path fill-rule="evenodd" clip-rule="evenodd" d="M6.2995 1.6101e-05H9.11733C9.29767 -0.000100566 9.45475 -0.000200475 9.60308 0.0234912C10.1892 0.117083 10.6963 0.482624 10.9705 1.00903C11.0398 1.14227 11.0894 1.29134 11.1463 1.46245L11.2394 1.74153C11.2552 1.78877 11.2597 1.80215 11.2634 1.81268C11.4094 2.21612 11.7878 2.48883 12.2166 2.4997C12.2279 2.49998 12.2417 2.50003 12.2917 2.50003H14.7917C15.1369 2.50003 15.4167 2.77986 15.4167 3.12503C15.4167 3.47021 15.1369 3.75003 14.7917 3.75003H0.625C0.279825 3.75003 0 3.47021 0 3.12503C0 2.77986 0.279825 2.50003 0.625 2.50003H3.12507C3.17511 2.50003 3.18892 2.49998 3.20019 2.4997C3.62907 2.48883 4.00743 2.21613 4.15335 1.8127C4.15719 1.8021 4.1616 1.78901 4.17742 1.74153L4.27043 1.46247C4.32734 1.29137 4.37694 1.14227 4.44633 1.00903C4.72044 0.482624 5.22761 0.117083 5.81369 0.0234912C5.96204 -0.000200475 6.11917 -0.000100566 6.2995 1.6101e-05ZM5.21513 2.50003C5.25805 2.41585 5.29609 2.32837 5.32882 2.2379C5.33875 2.21043 5.3485 2.18118 5.36102 2.14362L5.44418 1.89411C5.52016 1.66618 5.53766 1.61969 5.55501 1.58637C5.64638 1.4109 5.81544 1.28905 6.0108 1.25785C6.04792 1.25192 6.0975 1.25003 6.33775 1.25003H9.079C9.31925 1.25003 9.36892 1.25192 9.406 1.25785C9.60133 1.28905 9.77042 1.4109 9.86183 1.58637C9.87917 1.61969 9.89667 1.66617 9.97258 1.89411L10.0557 2.14347L10.088 2.23792C10.1208 2.32838 10.1587 2.41585 10.2017 2.50003H5.21513Z" fill="#333333" />
<path d="M2.6378 5.1667C2.61484 4.82229 2.31703 4.5617 1.97261 4.58466C1.6282 4.60762 1.36761 4.90543 1.39057 5.24985L1.77678 11.0429C1.84803 12.1119 1.90558 12.9754 2.04055 13.6529C2.18088 14.3574 2.41957 14.9458 2.91256 15.4069C3.40556 15.8682 4.00852 16.0672 4.72073 16.1604C5.40574 16.2499 6.27106 16.2499 7.34239 16.2499H8.07481C9.14614 16.2499 10.0115 16.2499 10.6966 16.1604C11.4087 16.0672 12.0117 15.8682 12.5047 15.4069C12.9977 14.9458 13.2364 14.3574 13.3767 13.6529C13.5117 12.9754 13.5692 12.1119 13.6405 11.0429L14.0267 5.24985C14.0496 4.90543 13.7891 4.60762 13.4446 4.58466C13.1002 4.5617 12.8024 4.82229 12.7795 5.1667L12.3961 10.9159C12.3213 12.0392 12.268 12.8207 12.1508 13.4087C12.0371 13.9791 11.8786 14.281 11.6507 14.4942C11.4229 14.7073 11.1111 14.8455 10.5344 14.9209C9.93989 14.9987 9.15656 14.9999 8.03089 14.9999H7.38639C6.26073 14.9999 5.47735 14.9987 4.88285 14.9209C4.30618 14.8455 3.99438 14.7073 3.76654 14.4942C3.5387 14.281 3.38008 13.9791 3.26646 13.4087C3.14933 12.8207 3.09597 12.0392 3.02108 10.9159L2.6378 5.1667Z" fill="#333333" />
<path d="M5.56286 6.66989C5.90632 6.63556 6.21264 6.88614 6.24697 7.22964L6.66364 11.3963C6.69797 11.7397 6.44739 12.0461 6.10389 12.0804C5.76044 12.1147 5.45416 11.8641 5.41981 11.5206L5.00315 7.35398C4.96881 7.01056 5.2194 6.70423 5.56286 6.66989Z" fill="#333333" />
<path d="M9.8539 6.66989C10.1974 6.70423 10.448 7.01056 10.4136 7.35398L9.99698 11.5206C9.96265 11.8641 9.65631 12.1147 9.3129 12.0804C8.9694 12.0461 8.71881 11.7397 8.75315 11.3963L9.16981 7.22964C9.20415 6.88614 9.51048 6.63556 9.8539 6.66989Z" fill="#333333" />
</svg>
