<svg width="15" height="15" viewBox="0 0 15 15" fill="none" xmlns="http://www.w3.org/2000/svg">
<path d="M14.1504 9C14.5094 9 14.8008 9.29141 14.8008 9.65039V12.6504C14.8007 13.2205 14.574 13.7678 14.1709 14.1709C13.7677 14.574 13.2205 14.8008 12.6504 14.8008H2.15039C1.58023 14.8008 1.03307 14.574 0.629883 14.1709C0.226737 13.7678 6.46928e-05 13.2205 0 12.6504V9.65039C0 9.29141 0.291406 9 0.650391 9C1.00938 9 1.30078 9.29141 1.30078 9.65039V12.6504L1.30469 12.7344C1.32405 12.9289 1.41038 13.1116 1.5498 13.251C1.7092 13.4103 1.92501 13.5 2.15039 13.5H12.6504C12.8758 13.5 13.0916 13.4103 13.251 13.251C13.4103 13.0916 13.4999 12.8757 13.5 12.6504V9.65039C13.5 9.29141 13.7914 9 14.1504 9ZM7.42676 0.00195312C7.45098 0.00291948 7.47501 0.00513127 7.49902 0.00878906C7.51653 0.0114637 7.53376 0.0145111 7.55078 0.0185547C7.57203 0.0235782 7.59253 0.0308995 7.61328 0.0380859C7.6307 0.0441497 7.64833 0.0491725 7.66504 0.0566406C7.69206 0.0686681 7.71766 0.0837082 7.74316 0.0996094C7.75023 0.104023 7.75776 0.107631 7.76465 0.112305C7.79812 0.13502 7.83069 0.160771 7.86035 0.19043L11.6104 3.94043C11.8639 4.19428 11.8641 4.6066 11.6104 4.86035C11.3566 5.1141 10.9443 5.11392 10.6904 4.86035L8.05078 2.2207V9.65039C8.05065 10.0093 7.75929 10.3008 7.40039 10.3008C7.04149 10.3008 6.75013 10.0093 6.75 9.65039V2.2207L4.11035 4.86035C3.8566 5.1141 3.44429 5.11392 3.19043 4.86035C2.93659 4.60651 2.93659 4.19427 3.19043 3.94043L6.94043 0.19043C6.96989 0.160957 7.00247 0.134742 7.03711 0.111328L7.04297 0.107422C7.07498 0.0863092 7.10808 0.0676042 7.14258 0.0527344C7.15483 0.0474357 7.16804 0.0445919 7.18066 0.0400391C7.20552 0.0311098 7.23029 0.0224135 7.25586 0.0166016C7.27249 0.0128171 7.28955 0.0112695 7.30664 0.00878906C7.33036 0.0053336 7.35402 0.00278721 7.37793 0.00195312C7.38541 0.00169822 7.39285 0 7.40039 0C7.40924 0 7.41799 0.00160199 7.42676 0.00195312Z" fill="black" fill-opacity="0.3"/>
</svg>
