<svg width="14" height="12" viewBox="0 0 14 12" fill="none" xmlns="http://www.w3.org/2000/svg">
<path d="M5.68067 1.14494L0.73984 9.39328C0.637972 9.56969 0.584071 9.7697 0.583501 9.97341C0.58293 10.1771 0.63571 10.3774 0.736589 10.5544C0.837468 10.7314 0.98293 10.8789 1.1585 10.9822C1.33408 11.0855 1.53364 11.141 1.73734 11.1433H11.619C11.8227 11.141 12.0223 11.0855 12.1978 10.9822C12.3734 10.8789 12.5189 10.7314 12.6198 10.5544C12.7206 10.3774 12.7734 10.1771 12.7728 9.97341C12.7723 9.7697 12.7184 9.56969 12.6165 9.39328L7.67567 1.14494C7.57168 0.973506 7.42526 0.831764 7.25054 0.733393C7.07581 0.635022 6.87869 0.583344 6.67817 0.583344C6.47766 0.583344 6.28053 0.635022 6.10581 0.733393C5.93109 0.831764 5.78467 0.973506 5.68067 1.14494Z" stroke="black" stroke-width="1.16667" stroke-linecap="round" stroke-linejoin="round"/>
<path d="M6.67822 4.14328V6.47661" stroke="black" stroke-width="1.16667" stroke-linecap="round" stroke-linejoin="round"/>
<path d="M6.67822 8.80994H6.68406" stroke="black" stroke-width="1.16667" stroke-linecap="round" stroke-linejoin="round"/>
</svg>
